        <svg xmlns="http://www.w3.org/2000/svg" width="28" height="28" viewBox="0 0 28 28" class='fill-primary-100'>
            <g clipPath="url(#clip0_4365_370)">
                <path fillRule="evenodd" clipRule="evenodd"
                    d="M27.3995 2.15804C26.3677 0.192436 22.9741 0.809836 20.0411 1.59524C7.29129 6.29364 2.78049 15.8417 1.19569 21.5299C1.11729 21.6727 1.06969 21.8365 1.06549 22.0115C0.438289 24.4251 0.352889 26.0337 0.351489 26.0869C0.327689 26.6651 0.777089 27.1537 1.35529 27.1775C1.37069 27.1789 1.38609 27.1789 1.40149 27.1789C1.96009 27.1789 2.42489 26.7379 2.45009 26.1737C2.45709 26.0029 2.52149 24.8283 2.91769 23.0727C6.42889 22.9243 9.96389 21.6167 13.4359 19.1751C13.7075 18.9847 13.8727 18.6767 13.8825 18.3463C13.8923 18.0145 13.7439 17.6981 13.4849 17.4937L11.8833 16.2253L17.1389 15.7101C17.3531 15.6891 17.5547 15.6037 17.7185 15.4637C17.8319 15.3685 20.5073 13.0781 23.0525 10.4082C26.9235 6.34824 28.2633 3.80444 27.3995 2.15804Z">
                </path>
                <path fillRule="evenodd" clipRule="evenodd"
                    d="M21.1783 25.0798H12.2043C11.6247 25.0798 11.1543 25.5502 11.1543 26.1298C11.1543 26.7094 11.6247 27.1798 12.2043 27.1798H21.1783C21.7579 27.1798 22.2283 26.7094 22.2283 26.1298C22.2283 25.5502 21.7579 25.0798 21.1783 25.0798Z">
                </path>
            </g>
            <defs>
                <clipPath id="clip0_4365_370">
                    <rect width="28" height="28" fill="white"></rect>
                </clipPath>
            </defs>
        </svg>